<?xml version="1.0" encoding="utf-8"?>
<!-- Generator: Adobe Illustrator 21.1.0, SVG Export Plug-In . SVG Version: 6.00 Build 0)  -->
<svg version="1.1" id="Layer_1" xmlns="http://www.w3.org/2000/svg" xmlns:xlink="http://www.w3.org/1999/xlink" x="0px" y="0px"
	 viewBox="0 0 256 256" style="enable-background:new 0 0 256 256;" xml:space="preserve">
<style type="text/css">
	.st0{display:none;}
	.st1{font-family:'KaushanScript-Regular';}
	.st2{font-size:304.552px;}
	.st3{fill:#137DA7;}
</style>
<text transform="matrix(1 0 0 1 -23.5732 228.6875)" class="st0 st1 st2">D</text>
<g>
	<path class="st3" d="M97.3,29.4C68.6,41.8,52.4,64.1,43.9,93c-3.7-1.2-6.9-3.2-9.8-5.6c-5.5-4.6-9-10.3-10.4-17.3
		c-0.2-1.1,0-2.3,0.3-3.4c4.6-19,15.5-33.6,31.6-44.6C66.8,14.3,79.4,9.7,92.8,6.9c11-2.3,22.1-3.1,33.3-2.8
		c19.1,0.6,37.4,4.5,54.5,13.2c18.6,9.4,32.9,23.1,42.3,41.8c4.6,9.3,7.5,19.1,8.8,29.4c1.1,8.8,1,17.7,0.2,26.5
		c-2.7,31.1-14.1,58.7-33.1,83.2c-16.4,21.1-36.9,36.8-61.9,46.4c-10.1,3.9-20.7,6.2-31.5,7c-13.1,0.9-25.9,0.1-38.5-3.9
		c-17.8-5.7-31.2-16.6-39.3-33.7c-0.2-0.5-0.3-1.2-0.1-1.6c8.9-19.7,16.8-39.8,24.6-60c11.6-30.3,23.1-60.7,34.5-91
		c3.8-10.1,7-20.3,10.5-30.5C97.1,30.5,97.1,30.1,97.3,29.4z M140.1,44.9c-1.1,1.7-2.2,3.3-3.1,4.9c-7.9,13.2-14.9,27-21.9,40.7
		c-11.8,23.2-22.5,46.9-32.8,70.8c-6.3,14.5-12.2,29.2-16.7,44.4c-1.6,5.2-2.9,10.4-3.4,15.9c-0.1,0.8,0.1,1.3,0.9,1.4
		c2.3,0.5,4.6,1.2,6.9,1.5c7.9,1,15.8,1.2,23.8,0.6c8.2-0.6,16.3-2.2,24.1-5c18.9-6.6,34.9-17.5,48.6-31.9
		c15.6-16.3,26.3-35.5,33.2-56.9c3.9-12,6.1-24.3,6.7-36.9c0.5-8.9,0.4-17.8-1.5-26.6c-4.1-18.7-14.8-32.1-31.9-40.6
		c-10.3-5.1-21.4-7.2-32.8-7.8c-8.7-0.5-17.2,0.3-25.4,3.2c-3,1.1-5.9,2.5-8.9,3.7c0,0.1,0,0.2,0.1,0.4
		C118.3,31.1,129.8,36.8,140.1,44.9z"/>
</g>
</svg>
